<svg xmlns="http://www.w3.org/2000/svg" viewBox="0 0 27 29" width="27" height="29">
	<style>
		tspan { white-space:pre }
		.shp0 { fill: #17191e } 
	</style>
	<g id="Services">
		<g id="App">
			<path id="Shape 2" class="shp0" d="M13.93 19.76L13.93 18.19L12.66 18.19L12.66 19.79C11.23 20.08 10.1 21.19 9.79 22.61L1.35 22.61L1.35 23.89L9.73 23.89C9.96 25.71 11.51 27.12 13.4 27.12C15.29 27.12 16.84 25.71 17.07 23.89L25.64 23.89L25.64 22.61L17.01 22.61C16.68 21.13 15.46 19.98 13.93 19.76ZM13.4 25.85C12.06 25.85 10.97 24.76 10.97 23.42C10.97 22.08 12.06 21 13.4 20.99C14.74 21 15.82 22.08 15.83 23.42C15.82 24.76 14.74 25.85 13.4 25.85ZM23.74 1.87L3.26 1.87C2.14 1.88 1.24 2.78 1.24 3.9L1.24 15.3C1.24 16.41 2.14 17.32 3.26 17.32L23.74 17.32C24.85 17.32 25.76 16.41 25.76 15.3L25.76 3.9C25.76 2.78 24.85 1.88 23.74 1.87ZM24.49 15.3C24.49 15.7 24.15 16.04 23.74 16.05L3.26 16.05C2.85 16.04 2.51 15.7 2.51 15.3L2.51 3.9C2.51 3.49 2.85 3.15 3.26 3.15L23.74 3.15C24.15 3.15 24.49 3.49 24.49 3.9L24.49 15.3L24.49 15.3Z" />
		</g>
	</g>
</svg>