<svg xmlns="http://www.w3.org/2000/svg" viewBox="0 0 32 29" width="32" height="29">
	<style>
		tspan { white-space:pre }
		.shp0 { fill: #17191e } 
	</style>
	<g id="Services">
		<g id="Coding">
			<path id="Composite Path" class="shp0" d="M28.43 9.74L21.87 9.73C21.77 8.03 21.28 6.48 20.51 5.29C19.7 4.04 18.52 3.15 17.15 3.06L17.15 3.04L16.9 3.04L16.9 3.04L16.89 3.04L10.45 3.04C10.29 2.14 9.51 1.47 8.57 1.47L6.82 1.47C5.76 1.47 4.91 2.32 4.9 3.38L4.9 6.6L2.14 6.6C1.79 6.6 1.5 6.89 1.5 7.24C1.5 7.59 1.79 7.88 2.14 7.88L4.9 7.88L4.9 13.19L2.14 13.19C1.79 13.19 1.5 13.48 1.5 13.83L1.5 13.83C1.5 14.18 1.79 14.47 2.14 14.47L4.9 14.47L4.9 17.02C4.91 18.08 5.76 18.93 6.82 18.93L8.57 18.93C9.39 18.93 10.07 18.42 10.35 17.71L16.89 17.71C16.89 17.71 16.89 17.71 16.89 17.71L16.9 17.71L17.15 17.71L17.15 17.69C18.52 17.59 19.7 16.71 20.51 15.46C21.28 14.27 21.77 12.72 21.87 11.01L28.43 11.01C28.78 11.01 29.07 11.3 29.07 11.65L29.07 22.6C29.07 22.95 28.78 23.24 28.43 23.24L14.5 23.24C13.44 23.24 12.59 24.1 12.59 25.15L12.59 27.55L13.86 27.55L13.86 25.15C13.86 24.81 14.15 24.52 14.5 24.52L28.43 24.52C29.49 24.51 30.34 23.66 30.35 22.6L30.35 11.65C30.34 10.59 29.49 9.74 28.43 9.74ZM9.21 17.02C9.21 17.36 8.92 17.66 8.57 17.66L6.82 17.66C6.47 17.66 6.18 17.36 6.18 17.02L6.18 3.38C6.18 3.03 6.47 2.74 6.82 2.74L8.57 2.74C8.92 2.74 9.21 3.03 9.21 3.38L9.21 17.02ZM10.51 16.43L10.51 4.31L14.06 4.31L15.87 4.31L15.87 4.55L15.87 16.2L15.87 16.43L14.06 16.43L10.51 16.43ZM19.44 14.76C18.79 15.76 17.98 16.32 17.15 16.42L17.15 4.33C17.98 4.42 18.79 4.99 19.44 5.98C20.15 7.07 20.62 8.64 20.62 10.37C20.62 12.11 20.15 13.68 19.44 14.76Z" />
		</g>
	</g>
</svg>