<svg xmlns="http://www.w3.org/2000/svg" viewBox="0 0 29 28" width="29" height="28">
	<style>
		tspan { white-space:pre }
		.shp0 { fill: #17191e } 
	</style>
	<g id="Services">
		<g id="Design">
			<path id="Shape 3" class="shp0" d="M23.66 5.75L25.81 7.9C25.93 8.03 26 8.2 26 8.37C26 8.54 25.93 8.71 25.8 8.84L25.81 8.84L12.12 22.53L13.02 23.43L26.71 9.74C27.09 9.36 27.27 8.86 27.27 8.37C27.27 7.87 27.09 7.37 26.71 7L21.5 1.79C21.12 1.41 20.63 1.23 20.13 1.23C19.64 1.23 19.14 1.41 18.76 1.79L5.07 15.48L5.97 16.38L19.66 2.7C19.79 2.57 19.96 2.5 20.13 2.5C20.3 2.5 20.47 2.57 20.6 2.7L22.75 4.85L9.77 17.83L10.67 18.73L23.66 5.75ZM4.27 18.99C4.01 18.73 3.7 18.52 3.28 18.51C2.96 18.5 2.62 18.69 2.45 18.94C2.27 19.18 2.2 19.46 2.18 19.75L1.73 24.91L1.73 24.91C1.73 24.96 1.73 25.02 1.73 25.08C1.72 25.54 1.9 25.98 2.21 26.29C2.52 26.6 2.96 26.77 3.42 26.77L3.42 26.77C3.47 26.77 3.52 26.77 3.57 26.77L8.75 26.32C9.04 26.3 9.32 26.23 9.56 26.05C9.81 25.87 10 25.54 9.99 25.22C9.98 24.8 9.78 24.49 9.52 24.23L4.27 18.99ZM3.48 25.5C3.46 25.5 3.44 25.5 3.42 25.5C3.14 25.48 3.02 25.36 3 25.08C3 25.07 3 25.06 3 25.02L3 25.02L3.44 19.96L8.55 25.06L3.48 25.5Z" />
		</g>
	</g>
</svg>