<?xml version="1.0" encoding="UTF-8" standalone="no"?>
<!-- Created with Inkscape (http://www.inkscape.org/) -->

<svg
   xmlns:dc="http://purl.org/dc/elements/1.1/"
   xmlns:cc="http://creativecommons.org/ns#"
   xmlns:rdf="http://www.w3.org/1999/02/22-rdf-syntax-ns#"
   xmlns:svg="http://www.w3.org/2000/svg"
   xmlns="http://www.w3.org/2000/svg"
   xmlns:sodipodi="http://sodipodi.sourceforge.net/DTD/sodipodi-0.dtd"
   xmlns:inkscape="http://www.inkscape.org/namespaces/inkscape"
   width="200mm"
   height="100mm"
   viewBox="0 0 200 100"
   version="1.1"
   id="svg849"
   inkscape:version="0.92.3 (2405546, 2018-03-11)"
   sodipodi:docname="stroke_second.svg">
  <defs
     id="defs843">
    <inkscape:path-effect
       effect="spiro"
       id="path-effect1398"
       is_visible="true" />
  </defs>
  <sodipodi:namedview
     id="base"
     pagecolor="#ffffff"
     bordercolor="#666666"
     borderopacity="1.0"
     inkscape:pageopacity="0.0"
     inkscape:pageshadow="2"
     inkscape:zoom="0.98994949"
     inkscape:cx="289.63879"
     inkscape:cy="60.439976"
     inkscape:document-units="mm"
     inkscape:current-layer="layer1"
     showgrid="false"
     inkscape:window-width="1680"
     inkscape:window-height="987"
     inkscape:window-x="-8"
     inkscape:window-y="-8"
     inkscape:window-maximized="1" />
  <metadata
     id="metadata846">
    <rdf:RDF>
      <cc:Work
         rdf:about="">
        <dc:format>image/svg+xml</dc:format>
        <dc:type
           rdf:resource="http://purl.org/dc/dcmitype/StillImage" />
        <dc:title></dc:title>
      </cc:Work>
    </rdf:RDF>
  </metadata>
  <g
     inkscape:label="Layer 1"
     inkscape:groupmode="layer"
     id="layer1"
     transform="translate(0,-197)">
    <path
       style="fill:#000000;fill-opacity:0.70048308;stroke:#000000;stroke-width:0.26458332px;stroke-linecap:butt;stroke-linejoin:miter;stroke-opacity:0.03381642"
       d="m 199.9494,197.21429 0.18899,34.01784 c -2.50244,4.06208 -5.42035,7.86806 -8.69345,11.3393 -3.85216,4.08535 -8.18598,7.6982 -12.75161,10.96688 -4.73941,3.3931 -9.72897,6.41894 -14.69363,9.47299 -6.09974,3.75231 -12.20024,7.56841 -18.78909,10.37444 -8.97472,3.82212 -18.63598,5.68032 -28.15121,7.8285 -7.02166,1.58523 -14.00382,3.3408 -21.019539,4.95212 -9.413046,2.16192 -18.898869,4.06601 -28.492829,5.17743 -6.021433,0.69756 -12.083254,1.0827 -18.063747,2.07162 -7.311785,1.20905 -14.513788,3.32083 -21.920928,3.56227 -1.402752,0.0457 -2.806692,0.0239 -4.21016,0.0148 -2.543988,-0.0165 -5.088032,0.009 -7.632038,0.0221 -2.394721,0.0125 -4.789486,0.0143 -7.1842397,0.013 -2.8418194,-0.001 -5.6836365,-0.007 -8.52543872,-0.0172 L -1.0875068e-8,278.10119 C 6.5113982,276.86954 13.038033,275.71844 19.577907,274.64824 c 9.267925,-1.51662 18.561707,-2.87065 27.835439,-4.35135 13.186936,-2.1055 26.332075,-4.46692 39.521178,-6.5588 11.508213,-1.82528 23.097576,-3.45589 34.257286,-6.80724 14.63767,-4.39581 28.27894,-11.68607 40.95342,-20.22667 6.12992,-4.1306 12.06851,-8.57186 17.48795,-13.59853 8.07651,-7.49118 14.96099,-16.26487 20.31622,-25.89136 z"
       id="path1396"
       inkscape:connector-curvature="0"
       inkscape:path-effect="#path-effect1398"
       inkscape:original-d="m 199.9494,197.21429 0.18899,34.01784 c 0,0 -4.43233,15.46102 -8.69345,11.3393 -3.12037,-3.01828 1.10955,7.69809 -12.75161,10.96688 -2.43651,0.57458 -8.5687,5.9847 -14.69363,9.47299 -4.85438,2.76468 -14.58355,7.97129 -18.78909,10.37444 -9.03058,5.16029 -16.5675,3.12273 -28.15121,7.8285 -5.39023,2.18973 -15.17678,3.86491 -21.019539,4.95212 -12.058675,2.24387 -22.650597,3.65496 -28.492829,5.17743 -5.576436,1.45321 -11.380422,1.17544 -18.063747,2.07162 -7.502124,1.00597 -14.757441,2.95491 -21.920928,3.56227 -1.258555,0.10671 -2.680687,0.019 -4.21016,0.0148 -2.515369,-0.007 -5.26411,0.0131 -7.632038,0.0221 -2.533214,0.01 -4.992501,0.0131 -7.1842397,0.013 -4.9431899,-5e-5 -8.52543872,-0.0172 -8.52543872,-0.0172 L -1.0875068e-8,278.10119 c 0,0 8.203476410875067,-4.49973 19.577907010875069,-3.45295 6.148751,0.56586 17.273403,-3.37336 27.835439,-4.35135 17.910464,-1.65842 39.211693,-9.02447 39.521178,-6.5588 0.85051,6.77605 10.677351,6.72729 34.257286,-6.80724 2.86864,-1.64655 34.49976,-15.3195 40.95342,-20.22667 5.29975,-4.02977 13.21262,-13.23652 17.48795,-13.59853 26.00805,-2.20222 20.31622,-25.89136 20.31622,-25.89136 z"
       sodipodi:nodetypes="ccssssssssssssccssssssc" />
  </g>
</svg>
