<?xml version="1.0" encoding="UTF-8" standalone="no"?>
<!-- Created with Inkscape (http://www.inkscape.org/) -->

<svg
   xmlns:dc="http://purl.org/dc/elements/1.1/"
   xmlns:cc="http://creativecommons.org/ns#"
   xmlns:rdf="http://www.w3.org/1999/02/22-rdf-syntax-ns#"
   xmlns:svg="http://www.w3.org/2000/svg"
   xmlns="http://www.w3.org/2000/svg"
   xmlns:sodipodi="http://sodipodi.sourceforge.net/DTD/sodipodi-0.dtd"
   xmlns:inkscape="http://www.inkscape.org/namespaces/inkscape"
   width="100mm"
   height="50mm"
   viewBox="0 0 100 50"
   version="1.1"
   id="svg8"
   inkscape:version="0.92.3 (2405546, 2018-03-11)"
   sodipodi:docname="please wait.svg">
  <defs
     id="defs2" />
  <sodipodi:namedview
     id="base"
     pagecolor="#ffffff"
     bordercolor="#666666"
     borderopacity="1.0"
     inkscape:pageopacity="0.0"
     inkscape:pageshadow="2"
     inkscape:zoom="1.979899"
     inkscape:cx="201.89199"
     inkscape:cy="40.834725"
     inkscape:document-units="mm"
     inkscape:current-layer="layer1"
     showgrid="false"
     inkscape:window-width="1680"
     inkscape:window-height="987"
     inkscape:window-x="-8"
     inkscape:window-y="-8"
     inkscape:window-maximized="1" />
  <metadata
     id="metadata5">
    <rdf:RDF>
      <cc:Work
         rdf:about="">
        <dc:format>image/svg+xml</dc:format>
        <dc:type
           rdf:resource="http://purl.org/dc/dcmitype/StillImage" />
        <dc:title></dc:title>
      </cc:Work>
    </rdf:RDF>
  </metadata>
  <g
     inkscape:label="Layer 1"
     inkscape:groupmode="layer"
     id="layer1"
     transform="translate(0,-247)">
    <g
       aria-label="Please Wait"
       transform="scale(0.5295842,1.8882738)"
       style="font-style:normal;font-weight:normal;font-size:31.08548737px;line-height:1.25;font-family:sans-serif;letter-spacing:0px;word-spacing:0px;fill:#000000;fill-opacity:1;stroke:none;stroke-width:0.77713722"
       id="text817">
      <path
         d="m 23.29622,140.06883 q 0,1.50267 -0.531246,2.79283 -0.516068,1.275 -1.457132,2.21606 -1.168742,1.16874 -2.76248,1.7607 -1.593738,0.57678 -4.022292,0.57678 h -3.005335 v 8.42405 H 8.5123996 v -22.60073 h 6.1320984 q 2.033913,0 3.44551,0.34911 1.411597,0.33392 2.504446,1.06249 1.290169,0.86517 1.988379,2.15534 0.713387,1.29017 0.713387,3.26337 z m -3.126763,0.0759 q 0,-1.16874 -0.409818,-2.03391 -0.409819,-0.86518 -1.244634,-1.4116 -0.728566,-0.47053 -1.669631,-0.66785 -0.925886,-0.2125 -2.352661,-0.2125 h -2.974978 v 9.03118 h 2.534803 q 1.821415,0 2.9598,-0.31874 1.138384,-0.33393 1.851772,-1.04732 0.713387,-0.72856 1.001778,-1.53302 0.303569,-0.80446 0.303569,-1.80624 z"
         style="stroke-width:0.77713722"
         id="path819" />
         <!-- <animate attributeName="opacity" calcMode="spline" values="1;0.2;1" keyTimes="0;0.5;1" dur="0.7" keySplines="0.5 0 0.5 1;0.5 0 0.5 1" begin="0s" repeatCount="indefinite"> -->
      <path
         d="m 29.929208,155.83925 h -2.85355 v -23.61769 h 2.85355 z"
         style="stroke-width:0.77713722"
         id="path821" />
      <path
         d="M 49.797813,147.65806 H 37.30594 q 0,1.56338 0.470532,2.73212 0.470533,1.15356 1.29017,1.89731 0.78928,0.72856 1.86695,1.09285 1.092849,0.36428 2.398197,0.36428 1.730345,0 3.475868,-0.68303 1.760701,-0.69821 2.504446,-1.36606 h 0.151784 v 3.11158 q -1.441954,0.60714 -2.944621,1.01696 -1.502668,0.40982 -3.15712,0.40982 -4.219612,0 -6.587452,-2.27677 -2.36784,-2.29195 -2.36784,-6.49638 0,-4.1589 2.261591,-6.60263 2.276769,-2.44373 5.980313,-2.44373 3.430332,0 5.282105,2.00355 1.86695,2.00356 1.86695,5.69193 z m -2.777658,-2.1857 q -0.01518,-2.24641 -1.138385,-3.47587 -1.108027,-1.22945 -3.384796,-1.22945 -2.291948,0 -3.658009,1.35088 -1.350883,1.35088 -1.533025,3.35444 z"
         style="stroke-width:0.77713722"
         id="path823" />
      <path
         d="m 67.298578,155.83925 h -2.838373 v -1.80624 q -0.379461,0.25804 -1.032135,0.72857 -0.637495,0.45535 -1.244634,0.72856 -0.713387,0.34911 -1.639273,0.57679 -0.925886,0.24285 -2.17052,0.24285 -2.291948,0 -3.885686,-1.51785 -1.593739,-1.51784 -1.593739,-3.8705 0,-1.92767 0.819637,-3.11159 0.834816,-1.1991 2.36784,-1.88213 1.548203,-0.68303 3.718723,-0.92588 2.17052,-0.24286 4.659787,-0.36429 v -0.44017 q 0,-0.97142 -0.349104,-1.60892 -0.333926,-0.63749 -0.971422,-1.00178 -0.607138,-0.3491 -1.457132,-0.47053 -0.849994,-0.12143 -1.77588,-0.12143 -1.123206,0 -2.504446,0.30357 -1.38124,0.28839 -2.85355,0.85 h -0.151785 v -2.89909 q 0.834815,-0.22768 2.413375,-0.50089 1.57856,-0.27321 3.111585,-0.27321 1.791058,0 3.111584,0.30357 1.335705,0.28839 2.307126,1.00178 0.956243,0.69821 1.457132,1.80623 0.50089,1.10803 0.50089,2.74731 z m -2.838373,-4.17408 v -4.7205 q -1.305347,0.0759 -3.081227,0.22768 -1.760701,0.15178 -2.792837,0.44017 -1.229455,0.34911 -1.988378,1.09285 -0.758923,0.72857 -0.758923,2.01874 0,1.45713 0.880351,2.20087 0.88035,0.72857 2.686587,0.72857 1.502668,0 2.747301,-0.57678 1.244634,-0.59196 2.307126,-1.4116 z"
         style="stroke-width:0.77713722"
         id="path825" />
      <path
         d="m 84.935953,150.95178 q 0,2.32231 -1.927665,3.8098 -1.912486,1.48749 -5.236569,1.48749 -1.882129,0 -3.460689,-0.44018 -1.563381,-0.45535 -2.625874,-0.9866 v -3.20265 h 0.151785 q 1.350883,1.01695 3.005335,1.62409 1.654453,0.59196 3.172299,0.59196 1.882129,0 2.944621,-0.60714 1.062492,-0.60713 1.062492,-1.91248 0,-1.00178 -0.576781,-1.51785 -0.576782,-0.51607 -2.216056,-0.88035 -0.607138,-0.13661 -1.593738,-0.31875 -0.971421,-0.18214 -1.77588,-0.39464 -2.231234,-0.59196 -3.172298,-1.73034 -0.925886,-1.15356 -0.925886,-2.8232 0,-1.04731 0.424997,-1.9732 0.440175,-0.92588 1.320526,-1.65445 0.849994,-0.71338 2.155341,-1.1232 1.320526,-0.425 2.944622,-0.425 1.517846,0 3.066049,0.37946 1.563381,0.36428 2.595516,0.89553 v 3.05087 h -0.151784 q -1.092849,-0.80446 -2.656231,-1.35088 -1.563381,-0.56161 -3.066049,-0.56161 -1.563381,0 -2.641052,0.60714 -1.077671,0.59196 -1.077671,1.77588 0,1.04732 0.652674,1.57856 0.637495,0.53125 2.064271,0.86518 0.78928,0.18214 1.760701,0.36428 0.9866,0.18214 1.639274,0.33392 1.988378,0.45536 3.066049,1.56339 1.077671,1.1232 1.077671,2.97497 z"
         style="stroke-width:0.77713722"
         id="path827" />
      <path
         d="M 103.226,147.65806 H 90.734123 q 0,1.56338 0.470532,2.73212 0.470532,1.15356 1.290169,1.89731 0.78928,0.72856 1.866951,1.09285 1.092849,0.36428 2.398197,0.36428 1.730344,0 3.475868,-0.68303 1.7607,-0.69821 2.50445,-1.36606 h 0.15178 v 3.11158 q -1.44195,0.60714 -2.944622,1.01696 -1.502667,0.40982 -3.157119,0.40982 -4.219612,0 -6.587452,-2.27677 -2.36784,-2.29195 -2.36784,-6.49638 0,-4.1589 2.26159,-6.60263 2.27677,-2.44373 5.980314,-2.44373 3.430332,0 5.282109,2.00355 1.86695,2.00356 1.86695,5.69193 z m -2.77766,-2.1857 q -0.0152,-2.24641 -1.138387,-3.47587 -1.108028,-1.22945 -3.384797,-1.22945 -2.291947,0 -3.658009,1.35088 -1.350883,1.35088 -1.533024,3.35444 z"
         style="stroke-width:0.77713722"
         id="path829" />
      <path
         d="m 145.0123,133.23852 -5.87407,22.60073 h -3.38479 l -4.75086,-18.76058 -4.64461,18.76058 h -3.30891 l -5.98031,-22.60073 h 3.08123 l 4.75086,18.79094 4.67496,-18.79094 h 3.05087 l 4.7205,18.97308 4.72051,-18.97308 z"
         style="stroke-width:0.77713722"
         id="path831" />
      <path
         d="m 160.85861,155.83925 h -2.83837 v -1.80624 q -0.37946,0.25804 -1.03213,0.72857 -0.6375,0.45535 -1.24464,0.72856 -0.71339,0.34911 -1.63927,0.57679 -0.92589,0.24285 -2.17052,0.24285 -2.29195,0 -3.88569,-1.51785 -1.59374,-1.51784 -1.59374,-3.8705 0,-1.92767 0.81964,-3.11159 0.83482,-1.1991 2.36784,-1.88213 1.5482,-0.68303 3.71872,-0.92588 2.17052,-0.24286 4.65979,-0.36429 v -0.44017 q 0,-0.97142 -0.3491,-1.60892 -0.33393,-0.63749 -0.97142,-1.00178 -0.60714,-0.3491 -1.45714,-0.47053 -0.84999,-0.12143 -1.77588,-0.12143 -1.1232,0 -2.50444,0.30357 -1.38124,0.28839 -2.85355,0.85 h -0.15179 v -2.89909 q 0.83482,-0.22768 2.41338,-0.50089 1.57856,-0.27321 3.11158,-0.27321 1.79106,0 3.11159,0.30357 1.3357,0.28839 2.30712,1.00178 0.95624,0.69821 1.45713,1.80623 0.50089,1.10803 0.50089,2.74731 z m -2.83837,-4.17408 v -4.7205 q -1.30535,0.0759 -3.08123,0.22768 -1.7607,0.15178 -2.79283,0.44017 -1.22946,0.34911 -1.98838,1.09285 -0.75892,0.72857 -0.75892,2.01874 0,1.45713 0.88035,2.20087 0.88035,0.72857 2.68658,0.72857 1.50267,0 2.74731,-0.57678 1.24463,-0.59196 2.30712,-1.4116 z"
         style="stroke-width:0.77713722"
         id="path833" />
      <path
         d="m 169.44962,136.04654 h -3.21784 v -2.9598 h 3.21784 z m -0.18214,19.79271 h -2.85355 v -16.95434 h 2.85355 z"
         style="stroke-width:0.77713722"
         id="path835" />
      <path
         d="m 183.74773,155.68746 q -0.80446,0.2125 -1.7607,0.34911 -0.94107,0.1366 -1.68481,0.1366 -2.59552,0 -3.9464,-1.39641 -1.35088,-1.39642 -1.35088,-4.47765 v -9.01601 h -1.92767 v -2.39819 h 1.92767 v -4.87229 h 2.85355 v 4.87229 h 5.88924 v 2.39819 h -5.88924 v 7.72584 q 0,1.33571 0.0607,2.09463 0.0607,0.74374 0.425,1.39642 0.33392,0.60714 0.91071,0.89553 0.59196,0.27321 1.79105,0.27321 0.69821,0 1.45714,-0.19732 0.75892,-0.2125 1.09285,-0.34911 h 0.15178 z"
         style="stroke-width:0.77713722"
         id="path837" />
    </g>
  </g>
</svg>
