<svg xmlns="http://www.w3.org/2000/svg" viewBox="0 0 27 32" width="27" height="32">
	<style>
		tspan { white-space:pre }
		.shp0 { fill: #ffffff } 
	</style>
	<g id="Contact">
		<g id="Info">
			<g id="Address">
				<path id="Composite Path" class="shp0" d="M24.9 19.5L23 21.41L21.42 19.84C24.87 16 24.79 10.09 21.1 6.4C19.25 4.55 16.79 3.53 14.18 3.53C11.74 3.53 9.45 4.45 7.65 6.07L6.08 4.5L7.99 2.59C8.19 2.39 8.19 2.06 7.99 1.86C7.79 1.66 7.47 1.66 7.27 1.86L4.99 4.13C2.54 6.59 1.19 9.85 1.19 13.32C1.19 16.79 2.54 20.05 4.99 22.5C7.35 24.86 10.46 26.19 13.78 26.28C13.59 27.26 12.94 29.36 10.68 29.36L10.04 29.36C9.75 29.36 9.52 29.59 9.52 29.87C9.52 30.15 9.75 30.38 10.04 30.38L18.31 30.38C18.6 30.38 18.83 30.15 18.83 29.87C18.83 29.59 18.6 29.36 18.31 29.36L13.33 29.36C14.25 28.48 14.67 27.22 14.82 26.27C18.04 26.11 21.06 24.8 23.36 22.5L25.63 20.23C25.83 20.03 25.83 19.7 25.63 19.5C25.43 19.3 25.1 19.3 24.9 19.5L24.9 19.5ZM20.37 7.13C23.78 10.54 23.78 16.1 20.37 19.51C18.72 21.16 16.52 22.08 14.18 22.08C11.84 22.08 9.64 21.16 7.98 19.51C4.57 16.1 4.56 10.54 7.98 7.13C9.64 5.47 11.83 4.56 14.18 4.56C16.51 4.56 18.71 5.47 20.37 7.13L20.37 7.13ZM2.22 13.32C2.22 10.3 3.36 7.47 5.39 5.26L6.93 6.8C3.48 10.64 3.56 16.55 7.26 20.24C9.11 22.09 11.56 23.11 14.18 23.11C16.62 23.11 18.9 22.19 20.7 20.56L22.23 22.1C20.02 24.13 17.2 25.28 14.18 25.28C10.98 25.28 7.98 24.03 5.72 21.77C3.46 19.52 2.22 16.51 2.22 13.32L2.22 13.32Z" />
			</g>
		</g>
	</g>
</svg>