<svg xmlns="http://www.w3.org/2000/svg" viewBox="0 0 29 29" width="29" height="29">
	<style>
		tspan { white-space:pre }
		.shp0 { fill: #ffffff } 
	</style>
	<g id="Contact">
		<g id="Info">
			<g id="Mail">
				<path id="Composite Path" class="shp0" d="M27.69 11.18C27.69 11.05 27.62 10.94 27.54 10.85C27.52 10.84 27.53 10.82 27.51 10.81L24.56 8.52L24.56 1.61C24.56 1.35 24.35 1.15 24.09 1.15L5.28 1.15C5.02 1.15 4.81 1.35 4.81 1.61L4.81 8.52L1.85 10.81C1.84 10.82 1.85 10.84 1.83 10.85C1.74 10.94 1.67 11.05 1.67 11.18L1.67 26.85C1.67 26.88 1.69 26.91 1.7 26.94C1.7 26.96 1.69 26.98 1.7 27.01C1.71 27.02 1.72 27.03 1.73 27.05C1.75 27.1 1.79 27.13 1.82 27.17C1.85 27.2 1.87 27.23 1.91 27.25C1.92 27.25 1.92 27.27 1.93 27.27C2 27.3 2.06 27.31 2.12 27.32C2.13 27.32 2.13 27.32 2.14 27.32L27.23 27.32C27.3 27.32 27.37 27.31 27.43 27.28C27.45 27.27 27.45 27.25 27.47 27.25C27.5 27.23 27.52 27.2 27.54 27.18C27.58 27.14 27.61 27.1 27.64 27.05C27.65 27.03 27.66 27.02 27.67 27.01C27.67 26.98 27.66 26.96 27.67 26.94C27.67 26.91 27.69 26.89 27.69 26.86L27.69 11.18ZM2.61 12.13L4.99 13.98L11.49 19.02L2.61 25.9L2.61 12.13ZM22.94 22.94L17.88 19.02L26.38 12.43L26.76 12.13L26.76 25.9L22.94 22.94ZM26.47 11.18L24.56 12.66L24.56 9.7L26.47 11.18ZM5.75 2.08L23.62 2.08L23.62 8.75L23.62 13.22L14.69 20.15L5.75 13.22L5.75 8.75L5.75 2.08ZM4.81 9.7L4.81 12.66L4.25 12.23L2.9 11.18L4.81 9.7ZM3.5 26.39L12.25 19.61L14.4 21.27C14.57 21.4 14.8 21.4 14.97 21.27L17.12 19.61L25.86 26.39L3.5 26.39Z" />
			</g>
		</g>
	</g>
</svg>