<svg xmlns="http://www.w3.org/2000/svg" viewBox="0 0 32 32" width="32" height="32">
	<style>
		tspan { white-space:pre }
		.shp0 { fill: #ffffff } 
	</style>
	<g id="Contact">
		<g id="Info">
			<g id="Phone">
				<path id="Shape 1" class="shp0" d="M10.74 11.75C9.5 11.75 8.5 12.76 8.5 13.99C8.5 15.23 9.5 16.23 10.74 16.23C11.97 16.23 12.98 15.23 12.98 13.99C12.98 12.76 11.97 11.75 10.74 11.75ZM10.74 15.21C10.07 15.21 9.52 14.66 9.52 13.99C9.52 13.32 10.07 12.78 10.74 12.78C11.41 12.78 11.95 13.32 11.95 13.99C11.95 14.66 11.41 15.21 10.74 15.21ZM16 11.75C14.76 11.75 13.76 12.76 13.76 13.99C13.76 15.23 14.76 16.23 16 16.23C17.23 16.23 18.24 15.23 18.24 13.99C18.24 12.76 17.23 11.75 16 11.75ZM16 15.21C15.33 15.21 14.79 14.66 14.79 13.99C14.79 13.32 15.33 12.78 16 12.78C16.67 12.78 17.21 13.32 17.21 13.99C17.21 14.66 16.67 15.21 16 15.21ZM21.26 11.75C20.02 11.75 19.01 12.76 19.01 13.99C19.01 15.23 20.02 16.23 21.26 16.23C22.5 16.23 23.5 15.23 23.5 13.99C23.5 12.76 22.5 11.75 21.26 11.75ZM21.26 15.21C20.59 15.21 20.05 14.66 20.05 13.99C20.05 13.32 20.59 12.78 21.26 12.78C21.93 12.78 22.47 13.32 22.47 13.99C22.47 14.66 21.93 15.21 21.26 15.21ZM16 1.3C8.18 1.3 1.82 6.96 1.82 13.91C1.82 20.86 8.18 26.52 16 26.52C17.51 26.52 19.01 26.3 20.47 25.86L25.31 30.7L25.31 23.41C28.41 21.01 30.18 17.56 30.18 13.91C30.18 6.96 23.82 1.3 16 1.3ZM24.49 22.75L24.28 22.9L24.28 28.22L20.76 24.69L20.46 24.79C19.01 25.25 17.51 25.49 16 25.49C8.75 25.49 2.85 20.29 2.85 13.91C2.85 7.52 8.75 2.33 16 2.33C23.25 2.33 29.15 7.52 29.15 13.91C29.15 17.32 27.45 20.53 24.49 22.75Z" />
			</g>
		</g>
	</g>
</svg>