<svg xmlns="http://www.w3.org/2000/svg" viewBox="0 0 20 20" width="20" height="20">
	<style>
		tspan { white-space:pre }
		.shp0 { fill: #ffffff } 
	</style>
	<g id="Footer">
		<g id="Social">
			<path id="Dribble" class="shp0" d="M18.76 8.35C18.64 7.79 18.47 7.24 18.25 6.7C18.03 6.18 17.75 5.68 17.44 5.21C17.12 4.75 16.76 4.31 16.37 3.92C15.97 3.52 15.53 3.16 15.07 2.84C14.6 2.53 14.1 2.25 13.58 2.03C13.05 1.81 12.49 1.64 11.92 1.52C11.35 1.4 10.75 1.34 10.16 1.34C9.56 1.34 8.97 1.4 8.39 1.52C7.82 1.64 7.27 1.81 6.74 2.03C6.22 2.25 5.72 2.53 5.25 2.84C4.78 3.16 4.34 3.52 3.95 3.92C3.55 4.31 3.19 4.75 2.88 5.21C2.56 5.68 2.29 6.18 2.07 6.7C1.84 7.24 1.67 7.79 1.55 8.35C1.44 8.93 1.38 9.53 1.38 10.12C1.38 10.72 1.44 11.31 1.55 11.89C1.67 12.45 1.84 13.01 2.07 13.54C2.29 14.06 2.56 14.56 2.88 15.03C3.19 15.5 3.55 15.94 3.95 16.33C4.34 16.73 4.78 17.09 5.25 17.4C5.72 17.72 6.22 17.99 6.74 18.21C7.27 18.44 7.82 18.61 8.39 18.72C8.97 18.84 9.56 18.9 10.16 18.9C10.75 18.9 11.35 18.84 11.92 18.72C12.49 18.61 13.05 18.44 13.58 18.21C14.1 17.99 14.6 17.72 15.07 17.4C15.53 17.09 15.97 16.73 16.37 16.33C16.76 15.94 17.12 15.5 17.44 15.03C17.75 14.56 18.03 14.06 18.25 13.54C18.47 13.01 18.64 12.45 18.76 11.89C18.88 11.31 18.94 10.72 18.94 10.12C18.94 9.53 18.88 8.93 18.76 8.35ZM17.65 10.05C17.54 10.02 15.01 9.48 12.43 9.8C12.38 9.67 12.32 9.54 12.27 9.42C12.11 9.05 11.94 8.68 11.77 8.33C14.73 7.12 15.93 5.38 15.95 5.36C17 6.64 17.64 8.27 17.65 10.05ZM15.11 4.5C15.09 4.53 14.02 6.15 11.19 7.21C9.91 4.86 8.5 2.98 8.39 2.84C8.96 2.7 9.55 2.62 10.16 2.62C12.06 2.62 13.79 3.33 15.11 4.5ZM8.36 2.84L8.36 2.84C8.36 2.84 8.35 2.85 8.34 2.85C8.34 2.85 8.35 2.85 8.36 2.84ZM6.96 3.34C7.06 3.47 8.44 5.36 9.74 7.66C6.14 8.62 3.02 8.58 2.82 8.58C3.31 6.26 4.87 4.33 6.96 3.34ZM2.66 10.12C2.66 10.04 2.66 9.96 2.66 9.89C2.8 9.89 6.5 9.97 10.36 8.82C10.58 9.24 10.78 9.67 10.97 10.09C10.87 10.12 10.77 10.15 10.67 10.18C6.63 11.49 4.58 15.13 4.58 15.13L4.58 15.13C3.39 13.8 2.66 12.05 2.66 10.12ZM10.16 17.62C8.34 17.62 6.68 16.98 5.38 15.9C5.48 15.98 5.55 16.03 5.55 16.03C5.55 16.03 6.98 12.9 11.43 11.35C11.45 11.34 11.47 11.34 11.48 11.34C12.54 14.08 12.97 16.37 13.08 17.03C12.18 17.41 11.2 17.62 10.16 17.62ZM14.35 16.34C14.27 15.89 13.87 13.69 12.89 10.99C15.31 10.6 17.41 11.26 17.56 11.31C17.23 13.4 16.03 15.21 14.35 16.34Z" />
		</g>
	</g>
</svg>