<svg xmlns="http://www.w3.org/2000/svg" viewBox="0 0 20 18" width="20" height="18">
	<style>
		tspan { white-space:pre }
		.shp0 { fill: #ffffff } 
	</style>
	<g id="Footer">
		<g id="Social">
			<path id="Google" class="shp0" d="M18.48 7.51L15.81 7.51L15.81 4.84C15.81 4.64 15.64 4.47 15.44 4.47L14.68 4.47C14.48 4.47 14.31 4.64 14.31 4.84L14.31 7.51L11.64 7.51C11.44 7.51 11.27 7.67 11.27 7.88L11.27 8.64C11.27 8.84 11.44 9 11.64 9L14.31 9L14.31 11.67C14.31 11.88 14.48 12.04 14.68 12.04L15.44 12.04C15.64 12.04 15.81 11.88 15.81 11.67L15.81 9L18.48 9C18.68 9 18.85 8.84 18.85 8.64L18.85 7.88C18.85 7.67 18.68 7.51 18.48 7.51ZM9.51 9.85C8.95 9.45 8.44 8.87 8.43 8.69C8.43 8.36 8.46 8.2 9.19 7.64C10.14 6.89 10.66 5.92 10.66 4.89C10.66 3.96 10.37 3.13 9.89 2.55L10.26 2.55C10.34 2.55 10.42 2.53 10.48 2.48L11.53 1.72C11.66 1.63 11.71 1.46 11.67 1.31C11.62 1.16 11.47 1.05 11.31 1.05L6.62 1.05C6.11 1.05 5.59 1.14 5.07 1.32C3.36 1.91 2.17 3.37 2.17 4.86C2.17 6.98 3.81 8.59 6 8.64C5.96 8.81 5.94 8.97 5.94 9.14C5.94 9.46 6.02 9.77 6.19 10.07C6.17 10.07 6.15 10.07 6.13 10.07C4.04 10.07 2.15 11.1 1.43 12.63C1.25 13.02 1.15 13.43 1.15 13.82C1.15 14.21 1.25 14.58 1.45 14.93C1.89 15.74 2.86 16.36 4.17 16.69C4.85 16.86 5.57 16.95 6.33 16.95C7 16.95 7.65 16.86 8.24 16.69C10.11 16.15 11.31 14.78 11.31 13.2C11.31 11.68 10.82 10.77 9.51 9.85ZM3.58 13.32C3.58 12.22 4.98 11.25 6.58 11.25L6.62 11.25C6.97 11.25 7.31 11.3 7.63 11.4C7.74 11.48 7.85 11.55 7.95 11.62C8.69 12.12 9.18 12.45 9.31 12.99C9.35 13.12 9.36 13.26 9.36 13.39C9.36 14.76 8.34 15.46 6.32 15.46C4.78 15.46 3.58 14.52 3.58 13.32ZM5.04 2.89C5.29 2.61 5.61 2.46 5.98 2.46L6.02 2.46C7.06 2.49 8.05 3.64 8.24 5.03C8.34 5.81 8.16 6.54 7.77 6.99C7.52 7.28 7.2 7.43 6.82 7.43L6.82 7.43L6.8 7.43C5.79 7.4 4.77 6.19 4.59 4.81C4.49 4.03 4.65 3.33 5.04 2.89Z" />
		</g>
	</g>
</svg>