<svg xmlns="http://www.w3.org/2000/svg" viewBox="0 0 21 17" width="21" height="17">
	<style>
		tspan { white-space:pre }
		.shp0 { fill: #ffffff } 
	</style>
	<g id="Footer">
		<g id="Social">
			<path id="Twitter" class="shp0" d="M19.01 3.2C18.36 3.49 17.67 3.68 16.95 3.77C17.69 3.32 18.26 2.62 18.52 1.78C17.83 2.19 17.06 2.49 16.24 2.65C15.59 1.96 14.66 1.52 13.62 1.52C11.64 1.52 10.03 3.13 10.03 5.11C10.03 5.39 10.07 5.66 10.13 5.93C7.14 5.78 4.5 4.35 2.73 2.18C2.42 2.71 2.24 3.32 2.24 3.98C2.24 5.23 2.88 6.32 3.84 6.97C3.25 6.95 2.7 6.79 2.21 6.52C2.21 6.53 2.21 6.55 2.21 6.57C2.21 8.3 3.45 9.76 5.09 10.09C4.79 10.17 4.47 10.21 4.14 10.21C3.91 10.21 3.69 10.19 3.47 10.15C3.93 11.57 5.25 12.61 6.82 12.64C5.59 13.6 4.05 14.18 2.37 14.18C2.07 14.18 1.79 14.16 1.51 14.13C3.1 15.14 4.98 15.74 7.01 15.74C13.62 15.74 17.23 10.27 17.23 5.52C17.23 5.37 17.22 5.21 17.22 5.06C17.92 4.55 18.53 3.92 19.01 3.2Z" />
		</g>
	</g>
</svg>