<svg xmlns="http://www.w3.org/2000/svg" viewBox="0 0 20 20" width="20" height="20">
	<style>
		tspan { white-space:pre }
		.shp0 { fill: #ffffff } 
	</style>
	<g id="Footer">
		<g id="Social">
			<path id="Youtube" class="shp0" d="M15.53 9.6L4.47 9.6C2.71 9.6 1.29 11.02 1.29 12.78L1.29 15.34C1.29 17.09 2.71 18.52 4.47 18.52L15.53 18.52C17.29 18.52 18.71 17.09 18.71 15.34L18.71 12.78C18.71 11.02 17.29 9.6 15.53 9.6ZM6.79 11.59L5.77 11.59L5.77 16.7L4.78 16.7L4.78 11.59L3.75 11.59L3.75 10.72L6.79 10.72L6.79 11.59ZM9.7 16.7L8.82 16.7L8.82 16.21C8.65 16.39 8.49 16.53 8.31 16.62C8.13 16.72 7.96 16.76 7.8 16.76C7.59 16.76 7.44 16.7 7.34 16.56C7.23 16.43 7.18 16.24 7.18 15.97L7.18 12.29L8.06 12.29L8.06 15.67C8.06 15.77 8.08 15.85 8.12 15.89C8.16 15.94 8.22 15.97 8.3 15.97C8.36 15.97 8.45 15.94 8.54 15.87C8.64 15.81 8.74 15.73 8.82 15.64L8.82 12.29L9.7 12.29L9.7 16.7ZM12.9 15.79C12.9 16.1 12.83 16.34 12.69 16.5C12.55 16.67 12.35 16.75 12.09 16.75C11.92 16.75 11.76 16.72 11.63 16.66C11.49 16.59 11.37 16.49 11.25 16.36L11.25 16.7L10.36 16.7L10.36 10.72L11.25 10.72L11.25 12.64C11.37 12.51 11.5 12.41 11.63 12.34C11.77 12.27 11.9 12.23 12.04 12.23C12.32 12.23 12.53 12.33 12.68 12.51C12.82 12.7 12.9 12.98 12.9 13.34L12.9 15.79ZM15.95 14.6L14.27 14.6L14.27 15.43C14.27 15.66 14.29 15.82 14.35 15.91C14.41 16 14.51 16.05 14.65 16.05C14.8 16.05 14.9 16.01 14.96 15.93C15.02 15.85 15.05 15.69 15.05 15.43L15.05 15.23L15.95 15.23L15.95 15.45C15.95 15.9 15.84 16.24 15.62 16.48C15.4 16.7 15.07 16.82 14.63 16.82C14.24 16.82 13.93 16.7 13.7 16.45C13.47 16.21 13.36 15.88 13.36 15.45L13.36 13.47C13.36 13.09 13.48 12.78 13.73 12.54C13.98 12.3 14.3 12.18 14.7 12.18C15.1 12.18 15.41 12.29 15.63 12.51C15.85 12.74 15.95 13.05 15.95 13.47L15.95 14.6ZM14.66 12.95C14.52 12.95 14.42 12.99 14.36 13.07C14.3 13.15 14.27 13.28 14.27 13.47L14.27 13.91L15.05 13.91L15.05 13.47C15.05 13.28 15.02 13.15 14.96 13.07C14.89 12.99 14.79 12.95 14.66 12.95ZM11.62 12.93C11.56 12.93 11.5 12.95 11.44 12.98C11.37 13 11.31 13.05 11.25 13.11L11.25 15.86C11.32 15.93 11.39 15.99 11.46 16.01C11.53 16.05 11.6 16.06 11.68 16.06C11.78 16.06 11.86 16.03 11.91 15.97C11.96 15.9 11.99 15.81 11.99 15.66L11.99 13.39C11.99 13.24 11.96 13.13 11.9 13.05C11.83 12.97 11.74 12.93 11.62 12.93ZM5.92 8.07L7.04 8.07L7.04 5.33L8.34 1.48L7.2 1.48L6.51 4.11L6.44 4.11L5.71 1.48L4.59 1.48L5.92 5.46L5.92 8.07ZM9.85 8.19C10.3 8.19 10.65 8.07 10.91 7.83C11.17 7.59 11.3 7.27 11.3 6.85L11.3 4.35C11.3 3.98 11.17 3.67 10.91 3.44C10.64 3.2 10.31 3.08 9.89 3.08C9.45 3.08 9.09 3.2 8.82 3.42C8.55 3.64 8.42 3.94 8.42 4.32L8.42 6.83C8.42 7.25 8.55 7.58 8.81 7.82C9.07 8.07 9.42 8.19 9.85 8.19ZM9.44 4.28C9.44 4.18 9.48 4.09 9.55 4.02C9.63 3.96 9.73 3.93 9.85 3.93C9.98 3.93 10.09 3.96 10.17 4.02C10.25 4.09 10.29 4.18 10.29 4.28L10.29 6.93C10.29 7.06 10.25 7.16 10.17 7.24C10.09 7.31 9.98 7.34 9.85 7.34C9.71 7.34 9.62 7.31 9.54 7.24C9.47 7.16 9.44 7.06 9.44 6.93L9.44 4.28ZM12.8 8.14C12.98 8.14 13.17 8.08 13.37 7.98C13.57 7.88 13.76 7.73 13.94 7.53L13.94 8.07L14.94 8.07L14.94 3.21L13.94 3.21L13.94 6.9C13.85 7 13.75 7.09 13.64 7.16C13.53 7.22 13.43 7.26 13.36 7.26C13.27 7.26 13.2 7.23 13.16 7.18C13.12 7.13 13.09 7.05 13.09 6.93L13.09 3.21L12.1 3.21L12.1 7.27C12.1 7.56 12.16 7.77 12.28 7.92C12.39 8.06 12.57 8.14 12.8 8.14Z" />
		</g>
	</g>
</svg>