<svg xmlns="http://www.w3.org/2000/svg" viewBox="0 0 49 44" width="49" height="44">
	<style>
		tspan { white-space:pre }
		.shp0 { fill: #ffda00 } 
	</style>
	<g id="Stats">
		<g id="Awards">
			<path id="Shape 6" class="shp0" d="M23.81 41.7C23.76 41.65 23.72 41.62 23.71 41.61L23.71 41.61L24.08 41.26L23.71 41.6C17.53 35.42 12.01 30.05 8.01 25.47L8.01 25.47C4.03 20.88 1.44 17.2 1.38 13.81L1.38 13.81C1.38 13.75 1.38 13.67 1.39 13.56L1.39 13.56C1.43 6.96 6.77 1.63 13.38 1.62L13.38 1.62C18.19 1.62 22.32 4.46 24.23 8.54L24.23 8.54L24.5 9.12L24.51 9.1L24.77 8.54C26.68 4.46 30.82 1.62 35.62 1.62L35.62 1.62C42.25 1.63 47.6 6.99 47.61 13.56L47.61 13.56C47.61 13.65 47.61 13.74 47.62 13.82L47.62 13.82C47.56 17.2 44.96 20.89 40.99 25.48L40.99 25.48C36.99 30.04 31.49 35.4 25.32 41.58L25.32 41.58C25.3 41.6 25.28 41.62 25.27 41.63L25.27 41.63L25.27 41.63L24.58 42.38L23.81 41.7L23.81 41.7ZM3.48 13.61L3.48 13.67L3.48 13.7C3.48 13.7 3.47 13.74 3.47 13.81L3.47 13.81C3.41 16 5.64 19.65 9.58 24.1L9.58 24.1C13.35 28.41 18.6 33.55 24.5 39.44L24.5 39.44C30.41 33.54 35.65 28.41 39.42 24.1L39.42 24.1C43.35 19.66 45.59 16.01 45.53 13.82L45.53 13.82C45.53 13.76 45.53 13.7 45.52 13.61L45.52 13.61C45.51 8.13 41.1 3.72 35.62 3.71L35.62 3.71C31.66 3.71 28.24 6.05 26.66 9.42L26.66 9.42L26.4 9.99L26.25 10.3L26.21 10.35C25.87 10.9 25.25 11.31 24.5 11.31L24.5 11.31C23.71 11.31 23.05 10.84 22.7 10.21L22.7 10.21C22.69 10.19 22.65 10.12 22.6 10L22.6 10L22.34 9.43C20.76 6.05 17.35 3.71 13.39 3.71L13.39 3.71C7.91 3.72 3.49 8.13 3.48 13.61L3.48 13.61ZM24.56 9.26C24.56 9.26 24.56 9.26 24.54 9.23L24.54 9.23L24.54 9.23L24.56 9.26L24.56 9.26Z" />
		</g>
	</g>
</svg>