<svg xmlns="http://www.w3.org/2000/svg" viewBox="0 0 49 48" width="49" height="48">
	<style>
		tspan { white-space:pre }
		.shp0 { fill: #ffda00 } 
	</style>
	<g id="Stats">
		<g id="Coffee">
			<path id="Shape 4" class="shp0" d="M27.52 9.28C27.52 5.82 30.32 3.02 33.78 3.02C36.43 3.02 38.58 5.17 38.59 7.83C38.58 9.84 36.95 11.47 34.94 11.47C33.44 11.47 32.23 10.25 32.23 8.76L30.22 8.76L30.22 8.76C30.22 11.36 32.33 13.48 34.94 13.48C38.06 13.48 40.6 10.95 40.6 7.83C40.6 4.06 37.54 1.01 33.78 1.01C29.21 1.01 25.51 4.71 25.51 9.28L25.51 15.53L27.52 15.53L27.52 9.28ZM14.81 46.99L39.8 46.99L39.8 44.98L14.81 44.98L14.81 46.99ZM6.75 17.43L6.75 18.44L6.75 18.44C6.75 19.98 6.87 21.49 7.09 22.96C3.86 23.58 1.42 26.42 1.42 29.83C1.42 33.69 4.55 36.82 8.41 36.82C9.86 36.82 11.21 36.37 12.33 35.62C16.02 40.42 21.26 43.44 27.17 43.47C38.62 43.42 47.56 32.11 47.58 18.44L47.58 18.44L47.58 17.43L6.75 17.43ZM8.41 34.81C5.66 34.81 3.43 32.58 3.42 29.83C3.43 27.4 5.16 25.39 7.46 24.94C8.19 28.27 9.46 31.33 11.17 33.97C10.38 34.5 9.43 34.81 8.41 34.81ZM40.11 34.79C36.75 38.95 32.18 41.45 27.17 41.45C22.15 41.45 17.59 38.95 14.22 34.79C14.08 34.62 13.96 34.43 13.82 34.25C13.4 33.69 12.99 33.1 12.61 32.48C11.24 30.27 10.19 27.74 9.54 24.99C9.37 24.29 9.23 23.59 9.12 22.87C8.95 21.75 8.82 20.61 8.77 19.44L45.55 19.44C45.35 25.45 43.29 30.86 40.11 34.79Z" />
		</g>
	</g>
</svg>