<svg xmlns="http://www.w3.org/2000/svg" viewBox="0 0 45 44" width="45" height="44">
	<style>
		tspan { white-space:pre }
		.shp0 { fill: #ffda00 } 
	</style>
	<g id="Stats">
		<g id="Mail">
			<path id="Shape 5" class="shp0" d="M37.48 8.5L41 12.02C41.21 12.22 41.31 12.5 41.32 12.78C41.31 13.07 41.21 13.34 41 13.55L41 13.55L18.6 35.95L20.08 37.43L42.48 15.03C43.09 14.41 43.4 13.59 43.4 12.78C43.4 11.97 43.09 11.16 42.48 10.54L33.96 2.02C33.34 1.4 32.52 1.1 31.71 1.1C30.9 1.1 30.09 1.4 29.47 2.02L7.07 24.42L8.55 25.9L30.95 3.5C31.16 3.29 31.43 3.18 31.71 3.18C32 3.18 32.27 3.29 32.48 3.5L36 7.02L14.76 28.26L16.24 29.74L37.48 8.5ZM5.76 30.16C5.33 29.74 4.82 29.4 4.14 29.38C3.61 29.37 3.07 29.68 2.79 30.08C2.49 30.48 2.38 30.93 2.33 31.42L1.61 39.85L1.61 39.85C1.6 39.94 1.6 40.03 1.6 40.13C1.59 40.88 1.88 41.6 2.39 42.1C2.9 42.61 3.61 42.9 4.37 42.9L4.37 42.9C4.45 42.9 4.54 42.9 4.62 42.89L13.09 42.17C13.57 42.13 14.02 42.01 14.42 41.71C14.82 41.43 15.13 40.89 15.12 40.36C15.11 39.68 14.77 39.17 14.34 38.74L5.76 30.16ZM4.46 40.81C4.44 40.81 4.41 40.82 4.37 40.82C3.91 40.78 3.71 40.59 3.68 40.13C3.68 40.12 3.68 40.09 3.68 40.04L3.69 40.04L4.4 31.75L12.75 40.1L4.46 40.81Z" />
		</g>
	</g>
</svg>