<svg xmlns="http://www.w3.org/2000/svg" viewBox="0 0 50 48" width="50" height="48">
	<style>
		tspan { white-space:pre }
		.shp0 { fill: #ffda00 } 
	</style>
	<g id="Stats">
		<g id="Projects">
			<path id="Shape 7" class="shp0" d="M48.75 15.13C48.75 12.04 46.59 9.35 43.65 9.32L34.07 9.32L34.07 5.05C34.06 3.31 32.66 1.9 30.92 1.9L19.08 1.9C17.34 1.9 15.93 3.31 15.93 5.05L15.93 9.32L6.35 9.32C3.41 9.35 1.25 12.04 1.25 15.13L1.25 20.68C1.25 20.72 1.25 20.76 1.25 20.78C1.25 20.81 1.25 20.85 1.25 20.89C1.25 21.16 1.28 21.41 1.33 21.62C1.63 22.82 2.42 23.78 3.56 24.61L3.56 39.09C3.56 42.95 6.7 46.1 10.57 46.1L39.43 46.1C43.29 46.1 46.44 42.95 46.44 39.09L46.44 24.61C47.57 23.78 48.37 22.81 48.66 21.62C48.71 21.41 48.75 21.16 48.75 20.89C48.75 20.85 48.75 20.81 48.75 20.78C48.75 20.75 48.75 20.72 48.75 20.68L48.75 15.13ZM17.91 5.05C17.91 4.41 18.44 3.88 19.08 3.88L30.92 3.88C31.56 3.88 32.09 4.41 32.09 5.05L32.09 9.32L17.9 9.32L17.91 5.05ZM44.46 25.79L44.46 39.09C44.45 41.85 42.19 44.12 39.43 44.12L10.57 44.12C7.8 44.12 5.54 41.85 5.54 39.09L5.54 25.79C5.6 25.83 5.69 25.86 5.76 25.89C6.14 26.07 6.54 26.25 6.95 26.42C10.08 27.65 14.29 28.53 19.1 28.94L19.1 31.05C19.11 32.42 20.21 33.52 21.57 33.52L28.42 33.52C29.79 33.52 30.89 32.42 30.89 31.05L30.89 28.94C33.03 28.76 35.04 28.49 36.89 28.13C39.22 27.68 41.3 27.1 43.04 26.42L43.04 26.42L43.04 26.42C43.46 26.24 43.86 26.07 44.25 25.88C44.31 25.85 44.39 25.82 44.46 25.79ZM21.08 27.09L21.08 26.19C21.08 25.92 21.31 25.69 21.57 25.69L28.42 25.69C28.68 25.69 28.92 25.92 28.92 26.19L28.92 27.09L28.92 27.1L28.92 29.07L28.92 29.08L28.92 31.05C28.92 31.31 28.68 31.54 28.42 31.54L21.57 31.54C21.31 31.54 21.08 31.31 21.08 31.05L21.08 29.08L21.08 29.07L21.08 27.1L21.08 27.09ZM43.65 11.3C45.23 11.3 46.77 12.91 46.77 15.13L46.77 20.65C46.77 20.68 46.76 20.72 46.76 20.78C46.76 20.85 46.77 20.9 46.77 20.92C46.77 21 46.75 21.08 46.73 21.19C46.63 21.87 45.78 22.8 44.26 23.66C44.15 23.72 44.03 23.78 43.92 23.84C43.8 23.9 43.69 23.96 43.57 24.02C43.42 24.09 43.27 24.16 43.12 24.23C42.86 24.35 42.6 24.46 42.31 24.57C40.2 25.41 37.45 26.1 34.29 26.56C33.2 26.72 32.07 26.85 30.89 26.95L30.89 26.19C30.89 24.81 29.79 23.71 28.42 23.71L21.57 23.71C20.21 23.71 19.11 24.81 19.1 26.19L19.1 26.95C18.15 26.87 17.22 26.76 16.33 26.64C12.91 26.18 9.93 25.47 7.68 24.57C7.39 24.46 7.12 24.35 6.86 24.23C6.72 24.16 6.58 24.1 6.45 24.03C6.31 23.97 6.18 23.9 6.05 23.83C5.95 23.78 5.85 23.72 5.75 23.67C4.21 22.8 3.37 21.87 3.27 21.2C3.24 21.09 3.23 21 3.22 20.93C3.23 20.91 3.23 20.88 3.23 20.83L3.24 20.78L3.23 20.72C3.23 20.68 3.23 20.64 3.22 20.62L3.23 15.13C3.23 12.91 4.77 11.3 6.35 11.3L43.65 11.3Z" />
		</g>
	</g>
</svg>